PathFileType	4	(X/Y/Z)	E:\Marcel_BSc\Ayumi_22_01_2025\22-01-2025\sumo_dl_1.trc
DataRate	CameraRate	NumFrames	NumMarkers	Units	OrigDataRate	OrigDataStartFrame	OrigNumFrames
200.0	200.0	8	47	mm	200.0	548	2190	
Frame#	Time	FHD			LBHD			RBHD			RBAR			LBAR			RSACR			LSACR			USACR			C7			CLAV			T10			RSHO			LSHO			LTHI1			LTHI3			LTHI2			LTIB1			LTIB2			LTIB3			LMMAL			LLMAL			LHEE			LMT1			LMT5			LMT3			RTHI1			RTHI2			RTHI3			RTIB1			RTIB3			RTIB2			RLMAL			RMMAL			RHEE			RMT5			RMT1			RMT3			LDUPA			LMUPA			LUUPA			LRAD			RUL			RRAD			RUFIN			RMUPA			RDUPA			RUUPA			
		X1	Y1	Z1	X2	Y2	Z2	X3	Y3	Z3	X4	Y4	Z4	X5	Y5	Z5	X6	Y6	Z6	X7	Y7	Z7	X8	Y8	Z8	X9	Y9	Z9	X10	Y10	Z10	X11	Y11	Z11	X12	Y12	Z12	X13	Y13	Z13	X14	Y14	Z14	X15	Y15	Z15	X16	Y16	Z16	X17	Y17	Z17	X18	Y18	Z18	X19	Y19	Z19	X20	Y20	Z20	X21	Y21	Z21	X22	Y22	Z22	X23	Y23	Z23	X24	Y24	Z24	X25	Y25	Z25	X26	Y26	Z26	X27	Y27	Z27	X28	Y28	Z28	X29	Y29	Z29	X30	Y30	Z30	X31	Y31	Z31	X32	Y32	Z32	X33	Y33	Z33	X34	Y34	Z34	X35	Y35	Z35	X36	Y36	Z36	X37	Y37	Z37	X38	Y38	Z38	X39	Y39	Z39	X40	Y40	Z40	X41	Y41	Z41	X42	Y42	Z42	X43	Y43	Z43	X44	Y44	Z44	X45	Y45	Z45	X46	Y46	Z46	X47	Y47	Z47	
548	2.73	-137.3228	1029.0807	-967.31293	-112.93108	1040.2103	-909.04053	-96.032936	1048.8784	-1039.243	233.41492	236.34364	-2091.9346	251.01749	249.90999	128.8311	499.23038	770.52301	-1034.5941	506.41638	771.58636	-962.20441	495.68997	781.29553	-998.45361	138.72871	1082.4694	-975.74744	102.67104	923.67523	-981.07764	370.79135	911.42621	-994.42725	75.041359	959.80469	-1124.9209	103.01827	960.46576	-823.39618	414.24792	536.54651	-668.86115	379.65704	485.79425	-644.97766	360.19827	530.33362	-630.21893	314.30963	244.80978	-526.617	352.38583	237.51151	-559.16083	328.68604	181.80771	-534.44653	275.12265	73.616966	-581.79602	334.60828	72.506813	-533.9278	336.67969	33.703125	-591.77783	186.40686	46.977341	-468.48309	252.7132	27.369368	-423.48734	207.17171	43.080391	-441.16843	395.77005	527.80542	-1308.9078	341.38306	523.17438	-1346.8879	360.89386	478.0022	-1332.7922	300.91177	277.41794	-1448.5283	319.66177	215.68805	-1441.8766	342.4834	273.17288	-1419.3667	335.84277	74.323792	-1441.202	262.74002	72.963753	-1405.4458	340.4769	30.286608	-1382.5452	253.94934	26.356955	-1552.6962	195.14574	36.40696	-1518.2755	217.85878	34.411369	-1540.3322	223.75868	785.37091	-771.49457	174.27477	782.70325	-778.32727	169.81458	844.05609	-773.53003	194.82632	462.34723	-745.11011	146.46654	475.38974	-1253.5691	133.12039	467.06158	-1193.7723	128.80321	395.15103	-1197.2869	131.29988	869.94983	-1209.6414	142.55946	810.84521	-1228.1063	177.29492	881.90033	-1224.1281
549	2.735	-138.21652	1025.2489	-967.15509	-113.86533	1036.5393	-908.91626	-96.958168	1045.011	-1039.1082	233.32884	236.47624	-2091.8767	250.97803	249.92487	128.84958	499.56796	769.03052	-1034.47	506.71118	770.16766	-962.07666	495.9902	779.85706	-998.3031	137.67473	1079.4525	-975.66223	102.33321	920.52179	-980.93933	370.53491	909.54712	-994.37268	74.262459	956.39417	-1124.7507	102.3523	957.25812	-823.22705	414.28592	536.01843	-668.50592	379.52359	485.45731	-644.48431	360.23776	530.11798	-629.92126	314.15347	244.73566	-526.35834	352.13327	237.57632	-558.86542	328.2749	181.84833	-534.34869	275.13312	73.646469	-581.76086	334.57571	72.52182	-533.88605	336.67865	33.700005	-591.78326	186.39279	46.977112	-468.4935	252.69174	27.519592	-423.49219	207.09412	43.15107	-441.21362	396.02768	527.15436	-1308.9323	341.62619	522.84985	-1346.8593	360.98639	477.59155	-1332.8729	300.70935	277.37732	-1448.6749	319.5434	215.6969	-1442.0168	342.26004	273.20886	-1419.5675	335.82584	74.334084	-1441.2523	262.77142	73.043236	-1405.4481	340.49335	30.346802	-1382.4629	253.94214	26.345762	-1552.6932	195.15758	36.400192	-1518.2653	217.82928	34.385406	-1540.3163	224.11957	782.64056	-771.45825	174.6599	779.67877	-778.28601	169.68439	841.20142	-773.36316	196.96986	459.62155	-744.67731	147.70567	471.74939	-1252.1443	134.61087	463.34787	-1192.3574	130.4687	391.56277	-1195.6434	130.74516	866.50482	-1209.2517	142.26376	807.31128	-1227.4785	176.7773	878.45422	-1223.7736
550	2.74	-139.06642	1021.4057	-966.99438	-114.73787	1032.7704	-908.79156	-97.802277	1041.1068	-1039.0138	233.30272	236.44989	-2091.8721	250.95999	249.93021	128.84583	499.89175	767.52979	-1034.3828	507.08533	768.65002	-961.979	496.31955	778.37109	-998.15747	136.60089	1076.444	-975.53278	102.03952	917.33398	-980.84644	370.26221	907.72314	-994.258	73.518303	952.99677	-1124.5339	101.78311	954.09613	-823.06586	414.36282	535.62036	-668.16278	379.57684	485.25638	-643.9436	360.24619	529.90021	-629.62732	313.81018	244.74731	-526.11584	351.87164	237.65559	-558.56329	328.17892	181.76288	-534.125	275.10995	73.640259	-581.75061	334.56378	72.495567	-533.85425	336.66904	33.725449	-591.77686	186.39819	46.944942	-468.48785	252.71506	27.520681	-423.49179	207.11217	43.12476	-441.20532	396.16714	526.65094	-1308.8849	341.81323	522.63269	-1346.72	361.03241	477.1665	-1332.9836	300.47409	277.37711	-1448.7877	319.43503	215.69469	-1442.1335	341.98074	273.26877	-1419.7582	335.83551	74.335938	-1441.3127	262.76978	73.052773	-1405.4504	340.49551	30.348026	-1382.4777	253.95628	26.354673	-1552.6906	195.20526	36.370293	-1518.2534	217.85799	34.381657	-1540.3004	224.53023	779.9787	-771.39337	175.07246	776.77539	-778.01965	169.98849	838.20996	-773.12122	198.99409	456.86621	-744.1944	148.94386	468.16568	-1250.7944	135.88365	459.76773	-1190.8914	132.10794	388.00369	-1194.1685	130.30501	862.98822	-1208.8928	142.0269	803.80798	-1226.8605	176.29767	875.12103	-1223.3385
551	2.745	-139.87151	1017.567	-966.86475	-115.68422	1029.1743	-908.66125	-98.643311	1037.2756	-1038.8514	233.23004	236.44038	-2091.884	250.91962	249.93529	128.84744	500.25272	766.01538	-1034.2916	507.30951	767.28729	-961.82849	496.64426	777.00854	-998.00421	135.5676	1073.5569	-975.37488	101.75947	914.17242	-980.75787	369.56012	906.37238	-994.22089	72.739799	949.5741	-1124.3574	101.33712	950.6875	-822.95874	414.56137	535.24469	-667.78345	379.53912	484.93658	-643.50854	360.27402	529.68616	-629.32715	313.52722	244.72081	-525.84192	351.77985	237.60349	-558.24182	327.9458	181.82121	-533.91705	275.07819	73.633507	-581.70337	334.54221	72.519043	-533.81671	336.67096	33.730682	-591.76849	186.36911	46.943047	-468.48569	252.72023	27.524641	-423.48871	207.13376	43.115044	-441.18817	396.58167	525.71979	-1309.1067	342.04626	522.1911	-1346.6901	361.12671	476.63202	-1333.1329	300.30429	277.3624	-1448.881	319.37042	215.67744	-1442.2355	341.7338	273.30737	-1419.9331	335.85654	74.334373	-1441.3654	262.76395	72.976494	-1405.4575	340.53006	30.325771	-1382.5972	253.95143	26.371313	-1552.6968	195.25485	36.328014	-1518.2358	217.86102	34.384811	-1540.2949	224.96021	777.39124	-771.27148	175.49776	773.95831	-777.71143	169.95328	835.38812	-772.8783	200.98895	454.15094	-743.57239	150.18498	464.67047	-1249.4792	137.31285	456.16669	-1189.5573	133.78484	384.55405	-1192.645	129.87791	859.513	-1208.5653	141.74356	800.40588	-1226.2609	175.92679	871.59332	-1223.0076
552	2.75	-140.65115	1013.7405	-966.69031	-116.46755	1025.4797	-908.47443	-99.451508	1033.4205	-1038.724	233.18959	236.42641	-2091.8962	250.89061	249.93582	128.84363	500.58435	764.55341	-1034.179	507.7077	765.73114	-961.78485	496.8858	775.65326	-997.86102	134.50352	1070.5431	-975.27808	101.465	911.06915	-980.59973	369.68484	904.06183	-994.14282	71.992081	946.16711	-1124.2339	100.7402	947.47406	-822.76776	414.42435	534.57758	-667.53302	379.40103	484.50726	-643.05798	360.28262	529.48114	-629.05988	313.33957	244.64165	-525.57233	351.57202	237.62511	-557.95618	327.97418	181.72961	-533.67749	275.09628	73.6194	-581.67102	334.51114	72.53035	-533.78271	336.66556	33.741734	-591.75531	186.36644	46.910397	-468.50497	252.61545	28.286894	-423.45618	206.72533	43.475693	-441.39233	396.63065	525.41895	-1308.8905	342.27213	521.67407	-1346.7261	361.25204	476.17996	-1333.2302	300.19016	277.32632	-1449.0105	319.24121	215.73479	-1442.3569	341.47318	273.36575	-1420.0488	335.85831	74.320251	-1441.4399	262.80646	72.96891	-1405.4811	340.48639	30.386412	-1382.3854	253.95691	26.37228	-1552.6956	195.29454	36.299717	-1518.2206	217.88408	34.382332	-1540.2872	225.44955	774.80719	-771.11108	176.00095	771.10352	-777.04932	170.20839	832.44568	-772.56006	203.06149	451.53381	-742.94153	151.38525	461.14474	-1248.3229	138.79903	452.57401	-1188.3636	135.4458	381.07071	-1191.2893	129.44179	856.08539	-1208.1661	141.61235	796.85901	-1225.7227	175.44043	868.36023	-1222.5925
553	2.755	-141.43665	1009.9424	-966.50586	-117.33945	1021.8153	-908.35962	-100.2741	1029.6289	-1038.5692	233.13123	236.42757	-2091.884	250.85924	249.95067	128.85468	500.96475	762.98547	-1034.0748	507.96484	764.29065	-961.67633	497.10562	774.24353	-997.77722	133.48633	1067.7921	-975.04565	101.06728	907.96375	-980.48328	369.14896	902.58728	-994.03998	71.307014	942.87524	-1124.0444	100.12585	944.28229	-822.63739	414.5636	534.18237	-667.22308	379.30255	484.20804	-642.62622	360.25714	529.22955	-628.82318	313.17438	244.55052	-525.31128	351.32898	237.71498	-557.63599	327.64191	181.74678	-533.54028	275.09723	73.603722	-581.65869	334.45721	72.53833	-533.74628	336.6507	33.761749	-591.75818	186.34274	46.874447	-468.51501	252.64767	28.361229	-423.46399	206.76707	43.475399	-441.41324	396.92487	524.70099	-1308.9446	342.40295	521.42407	-1346.7051	361.30237	475.7637	-1333.3138	300.02145	277.27957	-1449.1104	319.1225	215.65466	-1442.4447	341.26233	273.3736	-1420.2007	335.90399	74.291191	-1441.4751	262.79636	73.003937	-1405.4927	340.50159	30.37616	-1382.4781	253.98039	26.362682	-1552.6899	195.34415	36.250042	-1518.2013	217.87033	34.350288	-1540.2983	225.86026	772.22351	-770.94208	176.3882	768.21753	-777.00842	170.26674	829.63654	-772.19458	205.03473	448.85684	-742.23889	152.5798	457.67627	-1247.1687	140.24954	449.02423	-1187.1865	137.21004	377.54135	-1190.1117	129.0267	852.65106	-1207.8555	141.45851	793.28546	-1225.1825	175.01802	865.04633	-1222.2819
554	2.76	-142.16072	1006.1461	-966.35919	-118.18577	1018.1895	-908.23444	-101.02897	1025.8254	-1038.4108	233.05553	236.42061	-2091.8752	250.82129	249.94797	128.84813	501.25229	761.57782	-1033.9487	508.17883	762.99353	-961.50201	497.47516	772.61902	-997.7381	132.40544	1064.8619	-974.92535	100.80354	904.88184	-980.34369	369.14404	900.4729	-993.95721	70.61734	939.38123	-1123.838	99.666473	941.02142	-822.47516	414.69974	533.677	-666.88123	379.24411	483.90015	-642.20929	360.25348	528.9245	-628.57025	312.79282	244.4904	-525.1377	351.14621	237.76683	-557.28387	327.48602	181.68787	-533.34448	275.08307	73.591377	-581.63348	334.42285	72.54248	-533.72589	336.67249	33.769928	-591.72931	186.35721	46.835358	-468.49551	252.61188	28.75843	-423.43179	206.56635	43.645241	-441.51425	397.28375	523.84589	-1309.0431	342.98877	520.61713	-1346.5753	361.40915	475.17786	-1333.4658	299.87735	277.30826	-1449.1768	319.05215	215.65196	-1442.5571	340.92767	273.38345	-1420.3888	335.87747	74.292618	-1441.5286	262.80545	72.974831	-1405.4861	340.45642	30.364807	-1382.3799	253.98123	26.382282	-1552.692	195.39819	36.197784	-1518.1844	217.93465	34.382736	-1540.2764	226.26773	769.60687	-770.71222	176.8201	765.56763	-776.20886	170.31444	826.75122	-771.92389	207.04118	446.24646	-741.48297	153.71591	454.24899	-1246.1384	141.66573	445.52524	-1186.0522	138.88531	373.9881	-1189.0525	128.66119	849.19519	-1207.542	141.25868	789.90302	-1224.6685	174.61696	861.65143	-1221.9419
555	2.765	-142.9115	1002.3867	-966.15039	-118.89008	1014.6328	-908.01331	-101.74195	1022.0387	-1038.2236	232.99834	236.41789	-2091.8665	250.78949	249.95938	128.85152	501.5791	760.06818	-1033.8307	508.54047	761.54114	-961.43933	497.86069	771.03845	-997.67285	131.45251	1062.0802	-974.72577	100.40369	901.95142	-980.1944	368.85739	898.74786	-993.84692	69.961662	935.96912	-1123.6616	99.101166	937.77094	-822.34314	414.69119	533.0271	-666.60748	379.1373	483.45135	-641.82404	360.30145	528.65094	-628.35956	312.31165	244.55484	-524.98828	350.94296	237.85472	-557.01361	327.33469	181.77304	-533.15228	275.09903	73.541008	-581.62207	334.40717	72.55349	-533.69897	336.69882	33.752991	-591.72742	186.34201	46.791515	-468.50183	252.95546	26.384949	-423.57315	207.8486	42.398808	-440.91779	397.52747	523.31726	-1308.9458	343.25726	520.20294	-1346.506	361.48602	474.72391	-1333.5326	299.75961	277.29971	-1449.2792	318.89969	215.74931	-1442.6797	340.8577	273.39407	-1420.4944	335.88718	74.301445	-1441.5669	262.81708	72.98864	-1405.4915	340.46146	30.36886	-1382.344	253.93977	26.337185	-1552.7064	195.40569	36.187428	-1518.1914	217.89166	34.324028	-1540.2924	226.69373	767.08423	-770.41351	177.20737	762.44122	-776.17303	170.5405	823.85968	-771.51245	209.04024	443.6261	-740.60651	154.24916	451.3223	-1245.4722	143.03049	442.03265	-1185.047	140.6546	370.37497	-1188.1763	128.257	845.77344	-1207.2008	141.16724	786.32709	-1224.168	174.28387	858.18518	-1221.6478
